<?xml version="1.0" encoding="UTF-8" standalone="no"?>
<!-- Generator: Adobe Illustrator 19.0.0, SVG Export Plug-In . SVG Version: 6.00 Build 0)  -->

<svg
   version="1.1"
   id="Layer_1"
   x="0px"
   y="0px"
   viewBox="0 0 502 502"
   style="enable-background:new 0 0 502 502;"
   xml:space="preserve"
   sodipodi:docname="export.svg"
   inkscape:version="1.2 (dc2aedaf03, 2022-05-15)"
   xmlns:inkscape="http://www.inkscape.org/namespaces/inkscape"
   xmlns:sodipodi="http://sodipodi.sourceforge.net/DTD/sodipodi-0.dtd"
   xmlns="http://www.w3.org/2000/svg"
   xmlns:svg="http://www.w3.org/2000/svg"><defs
   id="defs53" /><sodipodi:namedview
   id="namedview51"
   pagecolor="#ffffff"
   bordercolor="#666666"
   borderopacity="1.0"
   inkscape:showpageshadow="2"
   inkscape:pageopacity="0.0"
   inkscape:pagecheckerboard="0"
   inkscape:deskcolor="#d1d1d1"
   showgrid="false"
   inkscape:zoom="0.59582902"
   inkscape:cx="4.1958346"
   inkscape:cy="495.94765"
   inkscape:window-width="1920"
   inkscape:window-height="1011"
   inkscape:window-x="0"
   inkscape:window-y="32"
   inkscape:window-maximized="1"
   inkscape:current-layer="g18" />
<g
   id="g18"
   transform="matrix(0.8739347,0,0,0.8739347,31.642391,31.642391)">
	<g
   id="g16"
   style="stroke:#000000;stroke-opacity:1;stroke-width:7.40787613;stroke-dasharray:none;fill:#000000">
		<g
   id="g14"
   style="stroke:#000000;stroke-opacity:1;stroke-width:7.40787613;stroke-dasharray:none;fill:#000000">
			<path
   d="m 373.12,103 c 0,-2.652 -1.054,-5.196 -2.929,-7.071 l -93,-93 C 275.316,1.054 272.772,0 270.12,0 h -253 c -5.523,0 -10,4.477 -10,10 v 482 c 0,5.523 4.477,10 10,10 h 346 c 5.523,0 10,-4.477 10,-10 z M 280.12,34.142 338.978,93 H 280.12 Z m 73,447.858 h -326 V 20 h 233 v 83 c 0,5.523 4.477,10 10,10 h 83 z"
   id="path2"
   style="stroke:#000000;stroke-width:7.40787613;stroke-dasharray:none;stroke-opacity:1;fill:#000000"
   sodipodi:nodetypes="cssssssssccccccccccsscc" />
			<path
   d="m 77.62,174 h 165.5 c 5.523,0 10,-4.477 10,-10 0,-5.523 -4.477,-10 -10,-10 H 77.62 c -5.523,0 -10,4.477 -10,10 0,5.523 4.477,10 10,10 z"
   id="path4"
   style="stroke:#000000;stroke-opacity:1;stroke-width:7.40787613;stroke-dasharray:none;fill:#000000" />
			<path
   d="m 302.62,220 h -225 c -5.523,0 -10,4.477 -10,10 0,5.523 4.477,10 10,10 h 225 c 5.523,0 10,-4.477 10,-10 0,-5.523 -4.477,-10 -10,-10 z"
   id="path6"
   style="stroke:#000000;stroke-opacity:1;stroke-width:7.40787613;stroke-dasharray:none;fill:#000000" />
			<path
   d="m 302.62,286 h -225 c -5.523,0 -10,4.477 -10,10 0,5.523 4.477,10 10,10 h 225 c 5.523,0 10,-4.477 10,-10 0,-5.523 -4.477,-10 -10,-10 z"
   id="path8"
   style="stroke:#000000;stroke-opacity:1;stroke-width:7.40787613;stroke-dasharray:none;fill:#000000" />
			<path
   d="m 302.62,352 h -225 c -5.523,0 -10,4.477 -10,10 0,5.523 4.477,10 10,10 h 225 c 5.523,0 10,-4.477 10,-10 0,-5.523 -4.477,-10 -10,-10 z"
   id="path10"
   style="stroke:#000000;stroke-opacity:1;stroke-width:7.40787613;stroke-dasharray:none;fill:#000000" />
			<path
   d="m 302.62,154 h -22 c -5.523,0 -10,4.477 -10,10 0,5.523 4.477,10 10,10 h 22 c 5.523,0 10,-4.477 10,-10 0,-5.523 -4.477,-10 -10,-10 z"
   id="path12"
   style="stroke:#000000;stroke-opacity:1;stroke-width:7.40787613;stroke-dasharray:none;fill:#000000" />
		</g>
	</g>
<path
   id="rect4031"
   style="stroke-width:8.1185;stroke-linecap:round;fill:#000000"
   d="m 319.51972,402.15648 80.21834,-0.30074 v -52.94082 l 114.73748,82.24078 -114.73748,81.63932 v -49.41144 l -80.21834,0.30074 z"
   sodipodi:nodetypes="cccccccc" /></g>
<g
   id="g20">
</g>
<g
   id="g22">
</g>
<g
   id="g24">
</g>
<g
   id="g26">
</g>
<g
   id="g28">
</g>
<g
   id="g30">
</g>
<g
   id="g32">
</g>
<g
   id="g34">
</g>
<g
   id="g36">
</g>
<g
   id="g38">
</g>
<g
   id="g40">
</g>
<g
   id="g42">
</g>
<g
   id="g44">
</g>
<g
   id="g46">
</g>
<g
   id="g48">
</g>
</svg>
