<?xml version="1.0" encoding="UTF-8" standalone="no"?>
<!-- Generator: Adobe Illustrator 19.0.0, SVG Export Plug-In . SVG Version: 6.00 Build 0)  -->

<svg
   version="1.1"
   id="Layer_1"
   x="0px"
   y="0px"
   viewBox="0 0 699.99999 699.99999"
   xml:space="preserve"
   sodipodi:docname="icon.svg"
   width="700"
   height="700"
   inkscape:version="1.2.1 (9c6d41e410, 2022-07-14)"
   inkscape:export-filename="icon-192.png"
   inkscape:export-xdpi="26.331429"
   inkscape:export-ydpi="26.331429"
   xmlns:inkscape="http://www.inkscape.org/namespaces/inkscape"
   xmlns:sodipodi="http://sodipodi.sourceforge.net/DTD/sodipodi-0.dtd"
   xmlns="http://www.w3.org/2000/svg"
   xmlns:svg="http://www.w3.org/2000/svg"><defs
   id="defs53" /><sodipodi:namedview
   id="namedview51"
   pagecolor="#ffffff"
   bordercolor="#666666"
   borderopacity="1.0"
   inkscape:showpageshadow="2"
   inkscape:pageopacity="0.0"
   inkscape:pagecheckerboard="0"
   inkscape:deskcolor="#d1d1d1"
   showgrid="false"
   inkscape:zoom="0.25"
   inkscape:cx="-114"
   inkscape:cy="10"
   inkscape:window-width="1920"
   inkscape:window-height="1011"
   inkscape:window-x="0"
   inkscape:window-y="32"
   inkscape:window-maximized="1"
   inkscape:current-layer="Layer_1" />









<g
   id="g20"
   transform="translate(103.17,53.512525)">
</g>
<g
   id="g22"
   transform="translate(103.17,53.512525)">
</g>
<g
   id="g24"
   transform="translate(103.17,53.512525)">
</g>
<g
   id="g26"
   transform="translate(103.17,53.512525)">
</g>
<g
   id="g28"
   transform="translate(103.17,53.512525)">
</g>
<g
   id="g30"
   transform="translate(103.17,53.512525)">
</g>
<g
   id="g32"
   transform="translate(103.17,53.512525)">
</g>
<g
   id="g34"
   transform="translate(103.17,53.512525)">
</g>
<g
   id="g36"
   transform="translate(103.17,53.512525)">
</g>
<g
   id="g38"
   transform="translate(103.17,53.512525)">
</g>
<g
   id="g40"
   transform="translate(103.17,53.512525)">
</g>
<g
   id="g42"
   transform="translate(103.17,53.512525)">
</g>
<g
   id="g44"
   transform="translate(103.17,53.512525)">
</g>
<g
   id="g46"
   transform="translate(103.17,53.512525)">
</g>
<g
   id="g48"
   transform="translate(103.17,53.512525)">
</g>
<g
   id="g4068"
   transform="matrix(1.1985816,0,0,1.2145108,807.21758,96.321496)"><path
     id="rect603"
     style="fill:#41cd52;fill-opacity:1;stroke-width:7.10498;stroke-linecap:round"
     d="M -559.91154,-19.891129 -654.24748,69.638168 -97.280678,348.10887 V -19.891129 Z" /><path
     id="path4064"
     style="fill:#35a542;fill-opacity:1;stroke-width:7.10498;stroke-linecap:round"
     d="M -191.61662,437.63712 -97.280677,348.10782 -654.24748,69.637776 V 437.63712 Z" /></g><text
   xml:space="preserve"
   style="font-style:normal;font-variant:normal;font-weight:normal;font-stretch:normal;font-size:229.733px;line-height:1.25;font-family:'Nimbus Mono PS';-inkscape-font-specification:'Nimbus Mono PS';fill:#f9f9f9;stroke-width:1.19653"
   x="119.92522"
   y="420.10895"
   id="text497"><tspan
     sodipodi:role="line"
     id="tspan495"
     x="119.92522"
     y="420.10895"
     style="fill:#f9f9f9;stroke-width:1.19653">QSSC</tspan></text><g
   id="g441"
   transform="matrix(-0.73302396,-0.28420121,-0.31876984,1.0685748,408.06171,221.29554)"><path
     style="fill:#ef3388;stroke-width:0.651265"
     d="m 325.71553,226.14506 c 22.92452,22.92452 10.42024,99.51326 -46.37005,118.7907 -41.15994,14.06732 -166.20279,21.36149 -174.01796,-4.16809 -3.55959,-27.27723 8.33619,55.74826 122.9588,-100.55529 25.52958,-35.42881 74.50469,-36.99185 97.42921,-14.06732 z"
     id="path4"
     sodipodi:nodetypes="scccs" /><path
     style="fill:#bc086b;stroke-width:0.651265"
     d="m 322.06845,233.96023 c 22.92452,22.92453 14.06732,91.69809 -43.24398,110.97553 -84.76967,34.536 -150.31675,33.24061 -174.01797,-4.16809 -8.544111,-29.0817 41.73268,59.53474 147.96737,-84.92494 26.0506,-34.90779 46.37006,-44.80702 69.29458,-21.8825 z"
     id="path6"
     sodipodi:nodetypes="scccs" /><path
     style="fill:#a0005f;stroke-width:0.651265"
     d="m 322.06845,233.96023 c 22.92452,22.92453 14.06732,91.69809 -43.24398,110.97553"
     id="path8" /><path
     style="fill:#2e9bcc;stroke-width:0.651265"
     d="m 521.02606,20.78773 h -43.76499 l -163.0078,175.13864 c -4.6891,4.68911 -4.6891,12.50428 0,17.19339 l 18.75643,19.27744 c 4.68911,4.68911 12.50428,4.68911 17.19339,0 L 521.02606,68.19981 Z"
     id="path10"
     sodipodi:nodetypes="cccccccc" /><path
     style="fill:#207eb7;stroke-width:0.651265"
     d="m 315.2953,215.20381 18.23541,16.67238 c 4.68911,4.6891 12.50429,4.6891 17.19339,0.52101 L 521.02606,68.72082 V 20.78773 h -41.68095"
     id="path12"
     sodipodi:nodetypes="cccccc" /><path
     style="fill:#0e6baa;stroke-width:0.651265"
     d="m 333.53071,231.35517 c 4.68911,4.68911 12.50429,5.21012 17.19339,0.52102 L 521.02606,68.19981 V 20.78773"
     id="path14"
     sodipodi:nodetypes="cccc" /><rect
     x="-412.88773"
     y="61.573643"
     transform="rotate(-135.0081)"
     style="fill:#f4cd27;stroke-width:0.651259"
     width="52.100037"
     height="28.655378"
     id="rect16" /><rect
     x="-412.40601"
     y="61.458836"
     transform="rotate(-134.9919)"
     style="fill:#edb811;stroke-width:0.651259"
     width="40.637882"
     height="28.655378"
     id="rect18" /></g></svg>
